<svg viewBox="0 0 1200 340" preserveAspectRatio="xMidYMid slice" xmlns="http://www.w3.org/2000/svg">
  <defs>
    <linearGradient id="bg" x1="0" y1="0" x2="1" y2="1">
      <stop offset="0%" stop-color="#08111d"/>
      <stop offset="50%" stop-color="#102131"/>
      <stop offset="100%" stop-color="#182336"/>
    </linearGradient>
    <radialGradient id="cyanGlow" cx="50%" cy="50%" r="60%">
      <stop offset="0%" stop-color="#7cecff" stop-opacity="0.72"/>
      <stop offset="60%" stop-color="#7cecff" stop-opacity="0.12"/>
      <stop offset="100%" stop-color="#7cecff" stop-opacity="0"/>
    </radialGradient>
    <radialGradient id="amberGlow" cx="50%" cy="50%" r="60%">
      <stop offset="0%" stop-color="#ffc56f" stop-opacity="0.68"/>
      <stop offset="60%" stop-color="#ffc56f" stop-opacity="0.12"/>
      <stop offset="100%" stop-color="#ffc56f" stop-opacity="0"/>
    </radialGradient>
  </defs>

  <rect width="1200" height="340" fill="url(#bg)"/>
  <ellipse cx="234" cy="254" rx="270" ry="132" fill="url(#cyanGlow)" opacity="0.34"/>
  <ellipse cx="982" cy="78" rx="250" ry="138" fill="url(#amberGlow)" opacity="0.3"/>

  <g fill="none" stroke="#88a4c9" stroke-opacity="0.14">
    <path d="M0 292C172 245 242 270 400 216S689 173 842 194S1071 173 1200 126"/>
    <path d="M0 258C176 222 242 239 382 195S700 149 846 171S1066 151 1200 104"/>
    <path d="M0 224C180 198 244 210 382 170S710 122 854 146S1062 132 1200 84"/>
  </g>

  <g fill="none" stroke="#bde6ff" stroke-opacity="0.42" stroke-width="1.6">
    <path d="M92 210H1108"/>
    <path d="M184 98V264M366 78V246M548 116V286M730 70V236M912 102V268"/>
    <path d="M92 210L184 98L366 78L548 116L730 70L912 102L1108 54"/>
    <path d="M92 210L184 264L366 246L548 286L730 236L912 268L1108 220"/>
  </g>

  <g fill="#89f1ff">
    <circle cx="92" cy="210" r="6"/><circle cx="184" cy="98" r="6"/><circle cx="366" cy="78" r="6"/>
    <circle cx="548" cy="116" r="6"/><circle cx="730" cy="70" r="6"/><circle cx="912" cy="102" r="6"/><circle cx="1108" cy="54" r="6"/>
  </g>
  <g fill="#ffc970">
    <circle cx="184" cy="264" r="5"/><circle cx="366" cy="246" r="5"/><circle cx="548" cy="286" r="5"/>
    <circle cx="730" cy="236" r="5"/><circle cx="912" cy="268" r="5"/><circle cx="1108" cy="220" r="5"/>
  </g>

  <g transform="translate(812 138)">
    <rect x="0" y="0" width="252" height="110" rx="18" fill="#081520" fill-opacity="0.72" stroke="#8fdcff" stroke-opacity="0.22"/>
    <path d="M34 75H218" stroke="#bde6ff" stroke-opacity="0.16"/>
    <path d="M42 48C74 22 96 22 126 48C160 80 184 80 214 44" fill="none" stroke="#6df0d0" stroke-width="4" stroke-linecap="round"/>
    <path d="M44 80C80 60 112 60 142 82C178 108 198 108 222 88" fill="none" stroke="#ffc970" stroke-width="4" stroke-linecap="round" opacity="0.88"/>
    <circle cx="42" cy="48" r="4" fill="#6df0d0"/><circle cx="126" cy="48" r="4" fill="#6df0d0"/><circle cx="214" cy="44" r="4" fill="#6df0d0"/>
    <circle cx="44" cy="80" r="4" fill="#ffc970"/><circle cx="142" cy="82" r="4" fill="#ffc970"/><circle cx="222" cy="88" r="4" fill="#ffc970"/>
  </g>

  <g opacity="0.5" fill="#e8f4ff">
    <circle cx="84" cy="38" r="1.2"/><circle cx="170" cy="44" r="1.2"/><circle cx="304" cy="40" r="1.2"/>
    <circle cx="464" cy="36" r="1.2"/><circle cx="608" cy="44" r="1.2"/><circle cx="980" cy="42" r="1.2"/>
    <circle cx="1128" cy="70" r="1.2"/><circle cx="1086" cy="296" r="1.2"/>
  </g>
</svg>
