<svg  viewBox="0 0 1200 340" preserveAspectRatio="xMidYMid slice"  xmlns="http://www.w3.org/2000/svg" >
        <defs><radialGradient id="glow-blue"><stop offset="0%" stop-color="#5b8def" stop-opacity="0.55"/><stop offset="60%" stop-color="#5b8def" stop-opacity="0.1"/><stop offset="100%" stop-color="#5b8def" stop-opacity="0"/></radialGradient><radialGradient id="glow-purple"><stop offset="0%" stop-color="#a06bff" stop-opacity="0.55"/><stop offset="60%" stop-color="#a06bff" stop-opacity="0.1"/><stop offset="100%" stop-color="#a06bff" stop-opacity="0"/></radialGradient><radialGradient id="glow-orange"><stop offset="0%" stop-color="#ff9b54" stop-opacity="0.55"/><stop offset="60%" stop-color="#ff9b54" stop-opacity="0.1"/><stop offset="100%" stop-color="#ff9b54" stop-opacity="0"/></radialGradient><radialGradient id="glow-teal"><stop offset="0%" stop-color="#3ecbb5" stop-opacity="0.55"/><stop offset="60%" stop-color="#3ecbb5" stop-opacity="0.1"/><stop offset="100%" stop-color="#3ecbb5" stop-opacity="0"/></radialGradient><radialGradient id="glow-pink"><stop offset="0%" stop-color="#ff7ab8" stop-opacity="0.55"/><stop offset="60%" stop-color="#ff7ab8" stop-opacity="0.1"/><stop offset="100%" stop-color="#ff7ab8" stop-opacity="0"/></radialGradient><radialGradient id="glow-green"><stop offset="0%" stop-color="#7bd389" stop-opacity="0.55"/><stop offset="60%" stop-color="#7bd389" stop-opacity="0.1"/><stop offset="100%" stop-color="#7bd389" stop-opacity="0"/></radialGradient><radialGradient id="glow-yellow"><stop offset="0%" stop-color="#ffd166" stop-opacity="0.55"/><stop offset="60%" stop-color="#ffd166" stop-opacity="0.1"/><stop offset="100%" stop-color="#ffd166" stop-opacity="0"/></radialGradient><radialGradient id="glow-red"><stop offset="0%" stop-color="#ff6b6b" stop-opacity="0.55"/><stop offset="60%" stop-color="#ff6b6b" stop-opacity="0.1"/><stop offset="100%" stop-color="#ff6b6b" stop-opacity="0"/></radialGradient><radialGradient id="glow-cyan"><stop offset="0%" stop-color="#5ad8ff" stop-opacity="0.55"/><stop offset="60%" stop-color="#5ad8ff" stop-opacity="0.1"/><stop offset="100%" stop-color="#5ad8ff" stop-opacity="0"/></radialGradient><radialGradient id="glow-sand"><stop offset="0%" stop-color="#d6b56a" stop-opacity="0.55"/><stop offset="60%" stop-color="#d6b56a" stop-opacity="0.1"/><stop offset="100%" stop-color="#d6b56a" stop-opacity="0"/></radialGradient><radialGradient id="glow-white"><stop offset="0%" stop-color="#e6eeff" stop-opacity="0.55"/><stop offset="60%" stop-color="#e6eeff" stop-opacity="0.1"/><stop offset="100%" stop-color="#e6eeff" stop-opacity="0"/></radialGradient><radialGradient id="glow-slate"><stop offset="0%" stop-color="#7c8db5" stop-opacity="0.55"/><stop offset="60%" stop-color="#7c8db5" stop-opacity="0.1"/><stop offset="100%" stop-color="#7c8db5" stop-opacity="0"/></radialGradient><linearGradient id="fade-r" x1="0" x2="1"><stop offset="0%" stop-color="#0b1020" stop-opacity="0.85"/><stop offset="55%" stop-color="#0b1020" stop-opacity="0"/></linearGradient><filter id="soft" x="-20%" y="-20%" width="140%" height="140%"><feGaussianBlur stdDeviation="0.4"/></filter></defs>
        <rect width="1200" height="340" fill="#0b1020"/>
        
  <circle cx="880" cy="100" r="260" fill="url(#glow-sand)" opacity="0.35"/>
  <circle cx="240" cy="260" r="200" fill="url(#glow-cyan)" opacity="0.3"/>
  <circle cx="1043.6" cy="104.2" r="1.1" fill="#cfe3ff" opacity="0.44"/><circle cx="1011.7" cy="214.4" r="1.5" fill="#cfe3ff" opacity="0.52"/><circle cx="130.3" cy="180.5" r="1.4" fill="#cfe3ff" opacity="0.26"/><circle cx="562.6" cy="262.7" r="1.2" fill="#cfe3ff" opacity="0.58"/><circle cx="693.6" cy="66.5" r="1.1" fill="#cfe3ff" opacity="0.37"/><circle cx="997.4" cy="91.4" r="1.7" fill="#cfe3ff" opacity="0.51"/><circle cx="1103.8" cy="106.5" r="1.2" fill="#cfe3ff" opacity="0.51"/><circle cx="64.4" cy="132.8" r="1.0" fill="#cfe3ff" opacity="0.41"/><circle cx="1020.1" cy="292.0" r="0.9" fill="#cfe3ff" opacity="0.29"/><circle cx="1067.2" cy="202.1" r="0.8" fill="#cfe3ff" opacity="0.51"/><circle cx="1124.1" cy="299.7" r="0.6" fill="#cfe3ff" opacity="0.47"/><circle cx="998.3" cy="328.8" r="1.0" fill="#cfe3ff" opacity="0.35"/><circle cx="52.8" cy="96.2" r="0.8" fill="#cfe3ff" opacity="0.45"/><circle cx="1072.7" cy="114.1" r="0.9" fill="#cfe3ff" opacity="0.43"/><circle cx="532.1" cy="88.6" r="1.6" fill="#cfe3ff" opacity="0.55"/><circle cx="60.6" cy="15.6" r="0.7" fill="#cfe3ff" opacity="0.18"/><circle cx="710.1" cy="142.6" r="1.4" fill="#cfe3ff" opacity="0.56"/><circle cx="421.4" cy="138.1" r="1.1" fill="#cfe3ff" opacity="0.28"/><circle cx="690.7" cy="186.7" r="1.3" fill="#cfe3ff" opacity="0.43"/><circle cx="836.5" cy="271.8" r="1.8" fill="#cfe3ff" opacity="0.28"/><circle cx="266.3" cy="23.8" r="1.5" fill="#cfe3ff" opacity="0.29"/><circle cx="343.0" cy="156.4" r="1.2" fill="#cfe3ff" opacity="0.17"/><circle cx="1051.7" cy="48.4" r="1.6" fill="#cfe3ff" opacity="0.33"/><circle cx="866.7" cy="312.5" r="1.1" fill="#cfe3ff" opacity="0.43"/><circle cx="1017.5" cy="151.3" r="1.0" fill="#cfe3ff" opacity="0.60"/><circle cx="955.9" cy="39.1" r="1.5" fill="#cfe3ff" opacity="0.57"/><circle cx="622.7" cy="210.9" r="0.9" fill="#cfe3ff" opacity="0.56"/><circle cx="1114.2" cy="58.0" r="1.5" fill="#cfe3ff" opacity="0.21"/><circle cx="148.9" cy="130.5" r="1.3" fill="#cfe3ff" opacity="0.38"/><circle cx="334.2" cy="285.5" r="1.5" fill="#cfe3ff" opacity="0.53"/><circle cx="233.1" cy="103.3" r="1.2" fill="#cfe3ff" opacity="0.20"/><circle cx="630.8" cy="209.3" r="1.8" fill="#cfe3ff" opacity="0.54"/><circle cx="801.3" cy="83.1" r="1.5" fill="#cfe3ff" opacity="0.17"/><circle cx="374.3" cy="173.7" r="0.8" fill="#cfe3ff" opacity="0.42"/><circle cx="801.6" cy="162.2" r="1.2" fill="#cfe3ff" opacity="0.42"/><circle cx="424.0" cy="170.3" r="1.5" fill="#cfe3ff" opacity="0.25"/><circle cx="1137.7" cy="156.0" r="1.2" fill="#cfe3ff" opacity="0.28"/><circle cx="261.3" cy="215.8" r="1.7" fill="#cfe3ff" opacity="0.34"/><circle cx="2.2" cy="93.8" r="1.2" fill="#cfe3ff" opacity="0.16"/><circle cx="923.3" cy="276.8" r="0.8" fill="#cfe3ff" opacity="0.52"/><circle cx="1009.9" cy="256.9" r="1.6" fill="#cfe3ff" opacity="0.59"/><circle cx="336.0" cy="80.3" r="1.4" fill="#cfe3ff" opacity="0.21"/><circle cx="531.2" cy="82.8" r="1.5" fill="#cfe3ff" opacity="0.54"/><circle cx="247.4" cy="172.0" r="1.7" fill="#cfe3ff" opacity="0.57"/><circle cx="1025.3" cy="16.4" r="1.6" fill="#cfe3ff" opacity="0.24"/><circle cx="761.2" cy="140.6" r="1.8" fill="#cfe3ff" opacity="0.20"/><circle cx="1173.7" cy="187.9" r="1.7" fill="#cfe3ff" opacity="0.59"/><circle cx="470.2" cy="128.8" r="1.6" fill="#cfe3ff" opacity="0.55"/><circle cx="13.5" cy="337.0" r="1.2" fill="#cfe3ff" opacity="0.24"/><circle cx="989.0" cy="191.2" r="1.0" fill="#cfe3ff" opacity="0.49"/><circle cx="670.6" cy="304.2" r="0.9" fill="#cfe3ff" opacity="0.55"/><circle cx="288.0" cy="218.5" r="1.8" fill="#cfe3ff" opacity="0.51"/><circle cx="493.1" cy="68.5" r="0.6" fill="#cfe3ff" opacity="0.58"/><circle cx="26.6" cy="89.2" r="1.4" fill="#cfe3ff" opacity="0.53"/><circle cx="1184.8" cy="11.9" r="0.7" fill="#cfe3ff" opacity="0.42"/><circle cx="486.1" cy="46.6" r="1.2" fill="#cfe3ff" opacity="0.25"/><circle cx="538.1" cy="50.5" r="1.7" fill="#cfe3ff" opacity="0.34"/><circle cx="1103.7" cy="283.8" r="1.2" fill="#cfe3ff" opacity="0.26"/><circle cx="568.0" cy="12.1" r="1.2" fill="#cfe3ff" opacity="0.25"/><circle cx="605.2" cy="74.7" r="1.2" fill="#cfe3ff" opacity="0.29"/><circle cx="844.9" cy="240.9" r="1.6" fill="#cfe3ff" opacity="0.33"/><circle cx="338.8" cy="191.6" r="1.5" fill="#cfe3ff" opacity="0.43"/><circle cx="1027.9" cy="48.6" r="0.8" fill="#cfe3ff" opacity="0.22"/><circle cx="8.3" cy="109.9" r="1.6" fill="#cfe3ff" opacity="0.49"/><circle cx="598.5" cy="131.9" r="1.6" fill="#cfe3ff" opacity="0.20"/><circle cx="206.1" cy="198.8" r="1.3" fill="#cfe3ff" opacity="0.43"/><circle cx="593.9" cy="117.3" r="0.8" fill="#cfe3ff" opacity="0.58"/><circle cx="947.1" cy="59.7" r="1.1" fill="#cfe3ff" opacity="0.30"/><circle cx="139.9" cy="71.9" r="1.1" fill="#cfe3ff" opacity="0.32"/><circle cx="1001.7" cy="150.0" r="1.1" fill="#cfe3ff" opacity="0.46"/>
  <!-- Eiffel hint -->
  <g transform="translate(220,260)" stroke="#cfe3ff" fill="none" opacity="0.55" stroke-width="1.1">
    <path d="M -45 0 L -10 -180 L 10 -180 L 45 0"/>
    <path d="M -30 -60 L 30 -60"/><path d="M -22 -110 L 22 -110"/>
    <line x1="-10" y1="-180" x2="0" y2="-200"/><line x1="10" y1="-180" x2="0" y2="-200"/>
    <line x1="-45" y1="0" x2="45" y2="0"/>
  </g>
  <!-- Taj-like dome -->
  <g transform="translate(600,260)" stroke="#cfe3ff" fill="none" opacity="0.55" stroke-width="1.1">
    <path d="M -60 0 q 0 -90 60 -90 q 60 0 60 90 z"/>
    <line x1="0" y1="-100" x2="0" y2="-120"/>
    <g transform="translate(-100,-30)"><line x1="0" y1="0" x2="0" y2="-100"/><circle cx="0" cy="-110" r="4"/></g>
    <g transform="translate(100,-30)"><line x1="0" y1="0" x2="0" y2="-100"/><circle cx="0" cy="-110" r="4"/></g>
    <line x1="-130" y1="0" x2="130" y2="0"/>
  </g>
  <!-- Pisa lean -->
  <g transform="translate(950,260) rotate(-8)" stroke="#cfe3ff" fill="none" opacity="0.5" stroke-width="1">
    <rect x="-22" y="-30" width="44" height="30"/><rect x="-22" y="-60" width="44" height="30"/><rect x="-22" y="-90" width="44" height="30"/><rect x="-22" y="-120" width="44" height="30"/><rect x="-22" y="-150" width="44" height="30"/><rect x="-22" y="-180" width="44" height="30"/>
    <line x1="-25" y1="0" x2="25" y2="0"/>
  </g>

        <rect width="1200" height="340" fill="url(#fade-r)"/>
      </svg>