<svg  viewBox="0 0 1200 340" preserveAspectRatio="xMidYMid slice"  xmlns="http://www.w3.org/2000/svg" >
        <defs><radialGradient id="glow-blue"><stop offset="0%" stop-color="#5b8def" stop-opacity="0.55"/><stop offset="60%" stop-color="#5b8def" stop-opacity="0.1"/><stop offset="100%" stop-color="#5b8def" stop-opacity="0"/></radialGradient><radialGradient id="glow-purple"><stop offset="0%" stop-color="#a06bff" stop-opacity="0.55"/><stop offset="60%" stop-color="#a06bff" stop-opacity="0.1"/><stop offset="100%" stop-color="#a06bff" stop-opacity="0"/></radialGradient><radialGradient id="glow-orange"><stop offset="0%" stop-color="#ff9b54" stop-opacity="0.55"/><stop offset="60%" stop-color="#ff9b54" stop-opacity="0.1"/><stop offset="100%" stop-color="#ff9b54" stop-opacity="0"/></radialGradient><radialGradient id="glow-teal"><stop offset="0%" stop-color="#3ecbb5" stop-opacity="0.55"/><stop offset="60%" stop-color="#3ecbb5" stop-opacity="0.1"/><stop offset="100%" stop-color="#3ecbb5" stop-opacity="0"/></radialGradient><radialGradient id="glow-pink"><stop offset="0%" stop-color="#ff7ab8" stop-opacity="0.55"/><stop offset="60%" stop-color="#ff7ab8" stop-opacity="0.1"/><stop offset="100%" stop-color="#ff7ab8" stop-opacity="0"/></radialGradient><radialGradient id="glow-green"><stop offset="0%" stop-color="#7bd389" stop-opacity="0.55"/><stop offset="60%" stop-color="#7bd389" stop-opacity="0.1"/><stop offset="100%" stop-color="#7bd389" stop-opacity="0"/></radialGradient><radialGradient id="glow-yellow"><stop offset="0%" stop-color="#ffd166" stop-opacity="0.55"/><stop offset="60%" stop-color="#ffd166" stop-opacity="0.1"/><stop offset="100%" stop-color="#ffd166" stop-opacity="0"/></radialGradient><radialGradient id="glow-red"><stop offset="0%" stop-color="#ff6b6b" stop-opacity="0.55"/><stop offset="60%" stop-color="#ff6b6b" stop-opacity="0.1"/><stop offset="100%" stop-color="#ff6b6b" stop-opacity="0"/></radialGradient><radialGradient id="glow-cyan"><stop offset="0%" stop-color="#5ad8ff" stop-opacity="0.55"/><stop offset="60%" stop-color="#5ad8ff" stop-opacity="0.1"/><stop offset="100%" stop-color="#5ad8ff" stop-opacity="0"/></radialGradient><radialGradient id="glow-sand"><stop offset="0%" stop-color="#d6b56a" stop-opacity="0.55"/><stop offset="60%" stop-color="#d6b56a" stop-opacity="0.1"/><stop offset="100%" stop-color="#d6b56a" stop-opacity="0"/></radialGradient><radialGradient id="glow-white"><stop offset="0%" stop-color="#e6eeff" stop-opacity="0.55"/><stop offset="60%" stop-color="#e6eeff" stop-opacity="0.1"/><stop offset="100%" stop-color="#e6eeff" stop-opacity="0"/></radialGradient><radialGradient id="glow-slate"><stop offset="0%" stop-color="#7c8db5" stop-opacity="0.55"/><stop offset="60%" stop-color="#7c8db5" stop-opacity="0.1"/><stop offset="100%" stop-color="#7c8db5" stop-opacity="0"/></radialGradient><linearGradient id="fade-r" x1="0" x2="1"><stop offset="0%" stop-color="#0b1020" stop-opacity="0.85"/><stop offset="55%" stop-color="#0b1020" stop-opacity="0"/></linearGradient><filter id="soft" x="-20%" y="-20%" width="140%" height="140%"><feGaussianBlur stdDeviation="0.4"/></filter></defs>
        <rect width="1200" height="340" fill="#0b1020"/>
        
  <circle cx="900" cy="90" r="260" fill="url(#glow-sand)" opacity="0.35"/>
  <circle cx="220" cy="260" r="200" fill="url(#glow-purple)" opacity="0.25"/>
  <circle cx="1066.9" cy="312.8" r="0.7" fill="#e8d6a8" opacity="0.33"/><circle cx="1086.8" cy="47.3" r="1.0" fill="#e8d6a8" opacity="0.38"/><circle cx="746.2" cy="78.5" r="0.7" fill="#e8d6a8" opacity="0.57"/><circle cx="474.8" cy="62.1" r="1.2" fill="#e8d6a8" opacity="0.28"/><circle cx="124.3" cy="245.8" r="1.0" fill="#e8d6a8" opacity="0.29"/><circle cx="35.6" cy="297.9" r="0.8" fill="#e8d6a8" opacity="0.53"/><circle cx="504.8" cy="63.3" r="1.3" fill="#e8d6a8" opacity="0.31"/><circle cx="850.7" cy="205.0" r="0.7" fill="#e8d6a8" opacity="0.23"/><circle cx="480.4" cy="13.7" r="1.8" fill="#e8d6a8" opacity="0.31"/><circle cx="757.1" cy="202.9" r="1.7" fill="#e8d6a8" opacity="0.27"/><circle cx="465.9" cy="151.6" r="1.1" fill="#e8d6a8" opacity="0.50"/><circle cx="480.9" cy="132.4" r="0.9" fill="#e8d6a8" opacity="0.23"/><circle cx="831.6" cy="27.8" r="0.9" fill="#e8d6a8" opacity="0.47"/><circle cx="970.1" cy="312.2" r="1.7" fill="#e8d6a8" opacity="0.51"/><circle cx="836.9" cy="200.7" r="1.2" fill="#e8d6a8" opacity="0.59"/><circle cx="328.4" cy="104.5" r="0.8" fill="#e8d6a8" opacity="0.30"/><circle cx="763.1" cy="233.7" r="0.9" fill="#e8d6a8" opacity="0.56"/><circle cx="1148.4" cy="105.3" r="1.2" fill="#e8d6a8" opacity="0.33"/><circle cx="47.3" cy="319.8" r="1.1" fill="#e8d6a8" opacity="0.52"/><circle cx="645.0" cy="142.5" r="0.7" fill="#e8d6a8" opacity="0.48"/><circle cx="1015.5" cy="72.9" r="1.8" fill="#e8d6a8" opacity="0.20"/><circle cx="788.5" cy="220.2" r="1.3" fill="#e8d6a8" opacity="0.52"/><circle cx="215.8" cy="265.4" r="0.7" fill="#e8d6a8" opacity="0.59"/><circle cx="38.2" cy="330.1" r="1.2" fill="#e8d6a8" opacity="0.50"/><circle cx="951.9" cy="32.5" r="1.1" fill="#e8d6a8" opacity="0.15"/><circle cx="275.5" cy="149.0" r="0.6" fill="#e8d6a8" opacity="0.29"/><circle cx="216.4" cy="83.7" r="1.5" fill="#e8d6a8" opacity="0.19"/><circle cx="137.5" cy="323.3" r="1.3" fill="#e8d6a8" opacity="0.17"/><circle cx="424.1" cy="20.1" r="1.1" fill="#e8d6a8" opacity="0.31"/><circle cx="1150.1" cy="240.1" r="1.1" fill="#e8d6a8" opacity="0.46"/><circle cx="345.3" cy="299.3" r="1.4" fill="#e8d6a8" opacity="0.42"/><circle cx="261.5" cy="105.2" r="0.6" fill="#e8d6a8" opacity="0.52"/><circle cx="39.5" cy="6.2" r="0.8" fill="#e8d6a8" opacity="0.26"/><circle cx="1175.4" cy="187.1" r="1.1" fill="#e8d6a8" opacity="0.30"/><circle cx="587.9" cy="291.1" r="1.2" fill="#e8d6a8" opacity="0.32"/><circle cx="84.3" cy="288.7" r="1.3" fill="#e8d6a8" opacity="0.35"/><circle cx="1027.7" cy="213.5" r="1.1" fill="#e8d6a8" opacity="0.56"/><circle cx="1003.1" cy="124.3" r="1.1" fill="#e8d6a8" opacity="0.44"/><circle cx="884.8" cy="294.0" r="1.2" fill="#e8d6a8" opacity="0.57"/><circle cx="702.2" cy="265.0" r="1.1" fill="#e8d6a8" opacity="0.16"/><circle cx="1107.3" cy="171.7" r="1.3" fill="#e8d6a8" opacity="0.30"/><circle cx="840.8" cy="249.0" r="1.1" fill="#e8d6a8" opacity="0.33"/><circle cx="998.9" cy="228.4" r="0.6" fill="#e8d6a8" opacity="0.29"/><circle cx="500.3" cy="319.8" r="1.3" fill="#e8d6a8" opacity="0.20"/><circle cx="752.3" cy="40.3" r="0.8" fill="#e8d6a8" opacity="0.36"/><circle cx="317.9" cy="330.3" r="1.7" fill="#e8d6a8" opacity="0.36"/><circle cx="1182.2" cy="115.3" r="0.8" fill="#e8d6a8" opacity="0.42"/><circle cx="219.4" cy="234.6" r="0.9" fill="#e8d6a8" opacity="0.54"/><circle cx="659.0" cy="117.4" r="1.5" fill="#e8d6a8" opacity="0.21"/><circle cx="353.0" cy="124.8" r="1.6" fill="#e8d6a8" opacity="0.38"/><circle cx="42.0" cy="38.5" r="1.1" fill="#e8d6a8" opacity="0.24"/><circle cx="422.4" cy="156.4" r="0.9" fill="#e8d6a8" opacity="0.59"/><circle cx="12.7" cy="235.1" r="1.1" fill="#e8d6a8" opacity="0.38"/><circle cx="1020.3" cy="18.6" r="1.0" fill="#e8d6a8" opacity="0.23"/><circle cx="408.1" cy="333.9" r="0.7" fill="#e8d6a8" opacity="0.46"/><circle cx="961.3" cy="332.8" r="1.2" fill="#e8d6a8" opacity="0.25"/><circle cx="354.0" cy="61.8" r="1.4" fill="#e8d6a8" opacity="0.35"/><circle cx="215.9" cy="196.5" r="1.6" fill="#e8d6a8" opacity="0.55"/><circle cx="398.8" cy="304.6" r="1.5" fill="#e8d6a8" opacity="0.31"/><circle cx="43.3" cy="54.6" r="0.7" fill="#e8d6a8" opacity="0.45"/>
  <!-- open book -->
  <g transform="translate(600,180)" stroke="#e8d6a8" fill="none" opacity="0.55" stroke-width="1.1">
    <path d="M -160 0 q 80 -40 160 0 q 80 -40 160 0 l 0 80 q -80 -30 -160 0 q -80 -30 -160 0 z"/>
    <line x1="0" y1="-15" x2="0" y2="80"/>
    <line x1="-150" y1="20" x2="-30" y2="20" opacity="0.4"/><line x1="-142" y1="28" x2="-35" y2="28" opacity="0.4"/><line x1="-134" y1="36" x2="-40" y2="36" opacity="0.4"/><line x1="-126" y1="44" x2="-45" y2="44" opacity="0.4"/><line x1="-118" y1="52" x2="-50" y2="52" opacity="0.4"/><line x1="-110" y1="60" x2="-55" y2="60" opacity="0.4"/>
    <line x1="30" y1="20" x2="150" y2="20" opacity="0.4"/><line x1="35" y1="28" x2="142" y2="28" opacity="0.4"/><line x1="40" y1="36" x2="134" y2="36" opacity="0.4"/><line x1="45" y1="44" x2="126" y2="44" opacity="0.4"/><line x1="50" y1="52" x2="118" y2="52" opacity="0.4"/><line x1="55" y1="60" x2="110" y2="60" opacity="0.4"/>
  </g>
  <!-- floating letters / quotes -->
  <g font-family="ui-serif, Georgia, serif" fill="#e8d6a8" opacity="0.5" font-style="italic">
    <text x="120" y="100" font-size="60">"</text>
    <text x="1080" y="280" font-size="60">"</text>
    <text x="220" y="80" font-size="20">— a thousand pages</text>
    <text x="900" y="110" font-size="18">Chapter I.</text>
  </g>
  <!-- spines -->
  <g transform="translate(80,220)" stroke="#e8d6a8" fill="none" opacity="0.4">
    <rect x="0" y="0" width="14" height="80"/><rect x="16" y="-10" width="14" height="90"/>
    <rect x="32" y="-5" width="14" height="85"/><rect x="48" y="-12" width="14" height="92"/>
  </g>

        <rect width="1200" height="340" fill="url(#fade-r)"/>
      </svg>