<svg  viewBox="0 0 1200 340" preserveAspectRatio="xMidYMid slice"  xmlns="http://www.w3.org/2000/svg" >
        <defs><radialGradient id="glow-blue"><stop offset="0%" stop-color="#5b8def" stop-opacity="0.55"/><stop offset="60%" stop-color="#5b8def" stop-opacity="0.1"/><stop offset="100%" stop-color="#5b8def" stop-opacity="0"/></radialGradient><radialGradient id="glow-purple"><stop offset="0%" stop-color="#a06bff" stop-opacity="0.55"/><stop offset="60%" stop-color="#a06bff" stop-opacity="0.1"/><stop offset="100%" stop-color="#a06bff" stop-opacity="0"/></radialGradient><radialGradient id="glow-orange"><stop offset="0%" stop-color="#ff9b54" stop-opacity="0.55"/><stop offset="60%" stop-color="#ff9b54" stop-opacity="0.1"/><stop offset="100%" stop-color="#ff9b54" stop-opacity="0"/></radialGradient><radialGradient id="glow-teal"><stop offset="0%" stop-color="#3ecbb5" stop-opacity="0.55"/><stop offset="60%" stop-color="#3ecbb5" stop-opacity="0.1"/><stop offset="100%" stop-color="#3ecbb5" stop-opacity="0"/></radialGradient><radialGradient id="glow-pink"><stop offset="0%" stop-color="#ff7ab8" stop-opacity="0.55"/><stop offset="60%" stop-color="#ff7ab8" stop-opacity="0.1"/><stop offset="100%" stop-color="#ff7ab8" stop-opacity="0"/></radialGradient><radialGradient id="glow-green"><stop offset="0%" stop-color="#7bd389" stop-opacity="0.55"/><stop offset="60%" stop-color="#7bd389" stop-opacity="0.1"/><stop offset="100%" stop-color="#7bd389" stop-opacity="0"/></radialGradient><radialGradient id="glow-yellow"><stop offset="0%" stop-color="#ffd166" stop-opacity="0.55"/><stop offset="60%" stop-color="#ffd166" stop-opacity="0.1"/><stop offset="100%" stop-color="#ffd166" stop-opacity="0"/></radialGradient><radialGradient id="glow-red"><stop offset="0%" stop-color="#ff6b6b" stop-opacity="0.55"/><stop offset="60%" stop-color="#ff6b6b" stop-opacity="0.1"/><stop offset="100%" stop-color="#ff6b6b" stop-opacity="0"/></radialGradient><radialGradient id="glow-cyan"><stop offset="0%" stop-color="#5ad8ff" stop-opacity="0.55"/><stop offset="60%" stop-color="#5ad8ff" stop-opacity="0.1"/><stop offset="100%" stop-color="#5ad8ff" stop-opacity="0"/></radialGradient><radialGradient id="glow-sand"><stop offset="0%" stop-color="#d6b56a" stop-opacity="0.55"/><stop offset="60%" stop-color="#d6b56a" stop-opacity="0.1"/><stop offset="100%" stop-color="#d6b56a" stop-opacity="0"/></radialGradient><radialGradient id="glow-white"><stop offset="0%" stop-color="#e6eeff" stop-opacity="0.55"/><stop offset="60%" stop-color="#e6eeff" stop-opacity="0.1"/><stop offset="100%" stop-color="#e6eeff" stop-opacity="0"/></radialGradient><radialGradient id="glow-slate"><stop offset="0%" stop-color="#7c8db5" stop-opacity="0.55"/><stop offset="60%" stop-color="#7c8db5" stop-opacity="0.1"/><stop offset="100%" stop-color="#7c8db5" stop-opacity="0"/></radialGradient><linearGradient id="fade-r" x1="0" x2="1"><stop offset="0%" stop-color="#0b1020" stop-opacity="0.85"/><stop offset="55%" stop-color="#0b1020" stop-opacity="0"/></linearGradient><filter id="soft" x="-20%" y="-20%" width="140%" height="140%"><feGaussianBlur stdDeviation="0.4"/></filter></defs>
        <rect width="1200" height="340" fill="#0b1020"/>
        
  <circle cx="900" cy="100" r="260" fill="url(#glow-cyan)" opacity="0.4"/>
  <circle cx="220" cy="240" r="220" fill="url(#glow-pink)" opacity="0.3"/>
  <circle cx="632.5" cy="100.1" r="1.6" fill="#cfe3ff" opacity="0.53"/><circle cx="54.8" cy="51.5" r="1.6" fill="#cfe3ff" opacity="0.28"/><circle cx="568.5" cy="320.6" r="1.1" fill="#cfe3ff" opacity="0.23"/><circle cx="692.2" cy="323.8" r="1.4" fill="#cfe3ff" opacity="0.22"/><circle cx="233.0" cy="145.0" r="0.7" fill="#cfe3ff" opacity="0.42"/><circle cx="954.2" cy="271.4" r="1.3" fill="#cfe3ff" opacity="0.25"/><circle cx="840.7" cy="194.8" r="0.7" fill="#cfe3ff" opacity="0.25"/><circle cx="1166.8" cy="301.5" r="1.5" fill="#cfe3ff" opacity="0.24"/><circle cx="1162.0" cy="247.3" r="1.4" fill="#cfe3ff" opacity="0.50"/><circle cx="678.2" cy="279.9" r="1.4" fill="#cfe3ff" opacity="0.46"/><circle cx="56.1" cy="67.6" r="1.2" fill="#cfe3ff" opacity="0.50"/><circle cx="792.1" cy="135.2" r="1.1" fill="#cfe3ff" opacity="0.38"/><circle cx="1004.6" cy="125.8" r="0.8" fill="#cfe3ff" opacity="0.25"/><circle cx="101.0" cy="10.0" r="1.8" fill="#cfe3ff" opacity="0.58"/><circle cx="644.4" cy="161.5" r="1.1" fill="#cfe3ff" opacity="0.19"/><circle cx="219.8" cy="299.1" r="0.8" fill="#cfe3ff" opacity="0.38"/><circle cx="901.4" cy="15.4" r="1.6" fill="#cfe3ff" opacity="0.35"/><circle cx="318.9" cy="213.1" r="1.1" fill="#cfe3ff" opacity="0.24"/><circle cx="323.9" cy="6.4" r="0.9" fill="#cfe3ff" opacity="0.23"/><circle cx="857.4" cy="310.4" r="1.6" fill="#cfe3ff" opacity="0.56"/><circle cx="615.6" cy="176.5" r="0.6" fill="#cfe3ff" opacity="0.37"/><circle cx="917.0" cy="154.5" r="0.9" fill="#cfe3ff" opacity="0.58"/><circle cx="769.0" cy="101.7" r="1.2" fill="#cfe3ff" opacity="0.60"/><circle cx="1134.5" cy="278.4" r="1.7" fill="#cfe3ff" opacity="0.44"/><circle cx="398.9" cy="290.0" r="1.6" fill="#cfe3ff" opacity="0.35"/><circle cx="236.1" cy="296.0" r="1.3" fill="#cfe3ff" opacity="0.32"/><circle cx="275.7" cy="65.5" r="1.6" fill="#cfe3ff" opacity="0.29"/><circle cx="769.7" cy="299.5" r="1.2" fill="#cfe3ff" opacity="0.31"/><circle cx="58.7" cy="99.9" r="1.5" fill="#cfe3ff" opacity="0.47"/><circle cx="39.1" cy="104.4" r="1.0" fill="#cfe3ff" opacity="0.22"/><circle cx="429.4" cy="69.9" r="0.7" fill="#cfe3ff" opacity="0.31"/><circle cx="1036.9" cy="80.0" r="1.4" fill="#cfe3ff" opacity="0.46"/><circle cx="24.7" cy="281.9" r="0.7" fill="#cfe3ff" opacity="0.54"/><circle cx="178.0" cy="167.6" r="0.8" fill="#cfe3ff" opacity="0.18"/><circle cx="370.7" cy="123.2" r="0.6" fill="#cfe3ff" opacity="0.58"/><circle cx="1032.6" cy="144.6" r="1.6" fill="#cfe3ff" opacity="0.19"/><circle cx="815.4" cy="139.4" r="1.1" fill="#cfe3ff" opacity="0.24"/><circle cx="60.0" cy="116.0" r="1.1" fill="#cfe3ff" opacity="0.23"/><circle cx="262.6" cy="259.1" r="0.9" fill="#cfe3ff" opacity="0.37"/><circle cx="741.8" cy="211.9" r="1.3" fill="#cfe3ff" opacity="0.34"/><circle cx="904.9" cy="285.0" r="1.3" fill="#cfe3ff" opacity="0.17"/><circle cx="914.9" cy="172.1" r="1.7" fill="#cfe3ff" opacity="0.48"/><circle cx="757.0" cy="271.8" r="0.8" fill="#cfe3ff" opacity="0.31"/><circle cx="105.3" cy="177.1" r="0.7" fill="#cfe3ff" opacity="0.24"/><circle cx="189.4" cy="110.3" r="1.3" fill="#cfe3ff" opacity="0.38"/><circle cx="461.2" cy="205.8" r="0.6" fill="#cfe3ff" opacity="0.47"/><circle cx="861.3" cy="18.7" r="1.5" fill="#cfe3ff" opacity="0.30"/><circle cx="86.1" cy="300.4" r="1.6" fill="#cfe3ff" opacity="0.36"/><circle cx="654.2" cy="240.6" r="1.4" fill="#cfe3ff" opacity="0.22"/><circle cx="372.8" cy="36.7" r="0.7" fill="#cfe3ff" opacity="0.19"/><circle cx="205.1" cy="288.9" r="1.1" fill="#cfe3ff" opacity="0.28"/><circle cx="936.1" cy="262.7" r="1.6" fill="#cfe3ff" opacity="0.29"/><circle cx="639.9" cy="117.6" r="1.7" fill="#cfe3ff" opacity="0.21"/><circle cx="146.3" cy="302.7" r="1.8" fill="#cfe3ff" opacity="0.43"/><circle cx="906.9" cy="159.0" r="0.9" fill="#cfe3ff" opacity="0.55"/><circle cx="62.6" cy="148.2" r="1.5" fill="#cfe3ff" opacity="0.21"/><circle cx="709.7" cy="228.3" r="0.8" fill="#cfe3ff" opacity="0.21"/><circle cx="166.6" cy="156.0" r="1.2" fill="#cfe3ff" opacity="0.40"/><circle cx="640.8" cy="15.0" r="1.0" fill="#cfe3ff" opacity="0.50"/><circle cx="295.3" cy="292.5" r="1.3" fill="#cfe3ff" opacity="0.38"/><circle cx="715.2" cy="140.3" r="0.9" fill="#cfe3ff" opacity="0.57"/><circle cx="774.6" cy="284.8" r="1.0" fill="#cfe3ff" opacity="0.47"/><circle cx="903.1" cy="41.8" r="0.6" fill="#cfe3ff" opacity="0.32"/><circle cx="952.6" cy="338.8" r="0.8" fill="#cfe3ff" opacity="0.48"/><circle cx="63.9" cy="164.3" r="1.1" fill="#cfe3ff" opacity="0.42"/><circle cx="933.2" cy="42.9" r="0.7" fill="#cfe3ff" opacity="0.36"/><circle cx="479.0" cy="298.0" r="1.7" fill="#cfe3ff" opacity="0.43"/><circle cx="508.8" cy="220.0" r="0.8" fill="#cfe3ff" opacity="0.21"/><circle cx="1185.5" cy="182.6" r="1.1" fill="#cfe3ff" opacity="0.32"/><circle cx="94.2" cy="244.6" r="0.9" fill="#cfe3ff" opacity="0.25"/><circle cx="509.2" cy="338.7" r="1.1" fill="#cfe3ff" opacity="0.58"/><circle cx="60.0" cy="7.5" r="1.5" fill="#cfe3ff" opacity="0.52"/><circle cx="598.4" cy="65.3" r="1.5" fill="#cfe3ff" opacity="0.26"/><circle cx="865.2" cy="67.1" r="1.4" fill="#cfe3ff" opacity="0.49"/><circle cx="756.7" cy="84.2" r="1.4" fill="#cfe3ff" opacity="0.35"/><circle cx="391.4" cy="326.7" r="0.7" fill="#cfe3ff" opacity="0.31"/><circle cx="1176.7" cy="311.7" r="1.5" fill="#cfe3ff" opacity="0.22"/><circle cx="475.6" cy="299.5" r="1.7" fill="#cfe3ff" opacity="0.57"/><circle cx="273.3" cy="235.5" r="1.7" fill="#cfe3ff" opacity="0.23"/><circle cx="1043.8" cy="279.3" r="0.8" fill="#cfe3ff" opacity="0.55"/>
  <!-- code window -->
  <g transform="translate(380,70)" font-family="ui-monospace, SFMono-Regular, monospace" font-size="14">
    <rect x="0" y="0" width="440" height="200" rx="10" fill="none" stroke="#5ad8ff" opacity="0.4"/>
    <circle cx="14" cy="14" r="4" fill="#ff6b6b" opacity="0.6"/><circle cx="28" cy="14" r="4" fill="#ffd166" opacity="0.6"/><circle cx="42" cy="14" r="4" fill="#7bd389" opacity="0.6"/>
    <g fill="#cfe3ff" opacity="0.65">
      <text x="20" y="50"><tspan fill="#a06bff">function</tspan> <tspan fill="#5ad8ff">solve</tspan>(<tspan fill="#ff9b54">riddle</tspan>) {</text>
      <text x="36" y="74"><tspan fill="#a06bff">if</tspan> (riddle.<tspan fill="#5ad8ff">isHard</tspan>)</text>
      <text x="52" y="98"><tspan fill="#a06bff">return</tspan> <tspan fill="#7bd389">'think again'</tspan>;</text>
      <text x="36" y="122"><tspan fill="#a06bff">return</tspan> <tspan fill="#7bd389">'aha!'</tspan>;</text>
      <text x="20" y="146">}</text>
      <text x="20" y="180" opacity="0.5">// 01001010 01000001 01001011 01001000</text>
    </g>
  </g>
  <!-- brackets and tags -->
  <g font-family="ui-monospace, monospace" fill="#5ad8ff" opacity="0.4" font-size="32">
    <text x="120" y="100">{ }</text><text x="120" y="240">&lt;/&gt;</text>
    <text x="900" y="280">[ ]</text>
  </g>

        <rect width="1200" height="340" fill="url(#fade-r)"/>
      </svg>