<svg  viewBox="0 0 1200 340" preserveAspectRatio="xMidYMid slice"  xmlns="http://www.w3.org/2000/svg" >
        <defs><radialGradient id="glow-blue"><stop offset="0%" stop-color="#5b8def" stop-opacity="0.55"/><stop offset="60%" stop-color="#5b8def" stop-opacity="0.1"/><stop offset="100%" stop-color="#5b8def" stop-opacity="0"/></radialGradient><radialGradient id="glow-purple"><stop offset="0%" stop-color="#a06bff" stop-opacity="0.55"/><stop offset="60%" stop-color="#a06bff" stop-opacity="0.1"/><stop offset="100%" stop-color="#a06bff" stop-opacity="0"/></radialGradient><radialGradient id="glow-orange"><stop offset="0%" stop-color="#ff9b54" stop-opacity="0.55"/><stop offset="60%" stop-color="#ff9b54" stop-opacity="0.1"/><stop offset="100%" stop-color="#ff9b54" stop-opacity="0"/></radialGradient><radialGradient id="glow-teal"><stop offset="0%" stop-color="#3ecbb5" stop-opacity="0.55"/><stop offset="60%" stop-color="#3ecbb5" stop-opacity="0.1"/><stop offset="100%" stop-color="#3ecbb5" stop-opacity="0"/></radialGradient><radialGradient id="glow-pink"><stop offset="0%" stop-color="#ff7ab8" stop-opacity="0.55"/><stop offset="60%" stop-color="#ff7ab8" stop-opacity="0.1"/><stop offset="100%" stop-color="#ff7ab8" stop-opacity="0"/></radialGradient><radialGradient id="glow-green"><stop offset="0%" stop-color="#7bd389" stop-opacity="0.55"/><stop offset="60%" stop-color="#7bd389" stop-opacity="0.1"/><stop offset="100%" stop-color="#7bd389" stop-opacity="0"/></radialGradient><radialGradient id="glow-yellow"><stop offset="0%" stop-color="#ffd166" stop-opacity="0.55"/><stop offset="60%" stop-color="#ffd166" stop-opacity="0.1"/><stop offset="100%" stop-color="#ffd166" stop-opacity="0"/></radialGradient><radialGradient id="glow-red"><stop offset="0%" stop-color="#ff6b6b" stop-opacity="0.55"/><stop offset="60%" stop-color="#ff6b6b" stop-opacity="0.1"/><stop offset="100%" stop-color="#ff6b6b" stop-opacity="0"/></radialGradient><radialGradient id="glow-cyan"><stop offset="0%" stop-color="#5ad8ff" stop-opacity="0.55"/><stop offset="60%" stop-color="#5ad8ff" stop-opacity="0.1"/><stop offset="100%" stop-color="#5ad8ff" stop-opacity="0"/></radialGradient><radialGradient id="glow-sand"><stop offset="0%" stop-color="#d6b56a" stop-opacity="0.55"/><stop offset="60%" stop-color="#d6b56a" stop-opacity="0.1"/><stop offset="100%" stop-color="#d6b56a" stop-opacity="0"/></radialGradient><radialGradient id="glow-white"><stop offset="0%" stop-color="#e6eeff" stop-opacity="0.55"/><stop offset="60%" stop-color="#e6eeff" stop-opacity="0.1"/><stop offset="100%" stop-color="#e6eeff" stop-opacity="0"/></radialGradient><radialGradient id="glow-slate"><stop offset="0%" stop-color="#7c8db5" stop-opacity="0.55"/><stop offset="60%" stop-color="#7c8db5" stop-opacity="0.1"/><stop offset="100%" stop-color="#7c8db5" stop-opacity="0"/></radialGradient><linearGradient id="fade-r" x1="0" x2="1"><stop offset="0%" stop-color="#0b1020" stop-opacity="0.85"/><stop offset="55%" stop-color="#0b1020" stop-opacity="0"/></linearGradient><filter id="soft" x="-20%" y="-20%" width="140%" height="140%"><feGaussianBlur stdDeviation="0.4"/></filter></defs>
        <rect width="1200" height="340" fill="#0b1020"/>
        
  <circle cx="880" cy="100" r="260" fill="url(#glow-yellow)" opacity="0.35"/>
  <circle cx="240" cy="260" r="200" fill="url(#glow-blue)" opacity="0.3"/>
  <circle cx="278.1" cy="316.8" r="1.4" fill="#fff0c4" opacity="0.24"/><circle cx="843.7" cy="210.2" r="0.9" fill="#fff0c4" opacity="0.16"/><circle cx="308.0" cy="278.4" r="1.0" fill="#fff0c4" opacity="0.15"/><circle cx="345.2" cy="1.1" r="0.9" fill="#fff0c4" opacity="0.19"/><circle cx="584.9" cy="167.3" r="1.4" fill="#fff0c4" opacity="0.24"/><circle cx="78.8" cy="118.0" r="1.2" fill="#fff0c4" opacity="0.34"/><circle cx="767.9" cy="315.0" r="1.7" fill="#fff0c4" opacity="0.57"/><circle cx="948.3" cy="36.2" r="1.4" fill="#fff0c4" opacity="0.39"/><circle cx="338.5" cy="58.3" r="1.3" fill="#fff0c4" opacity="0.55"/><circle cx="1146.1" cy="125.1" r="1.1" fill="#fff0c4" opacity="0.33"/><circle cx="333.9" cy="43.7" r="1.7" fill="#fff0c4" opacity="0.48"/><circle cx="687.1" cy="326.0" r="0.8" fill="#fff0c4" opacity="0.21"/><circle cx="1079.9" cy="338.3" r="0.8" fill="#fff0c4" opacity="0.23"/><circle cx="741.7" cy="76.3" r="0.8" fill="#fff0c4" opacity="0.36"/><circle cx="724.6" cy="127.8" r="1.7" fill="#fff0c4" opacity="0.49"/><circle cx="169.2" cy="161.1" r="0.7" fill="#fff0c4" opacity="0.56"/><circle cx="571.8" cy="20.8" r="0.7" fill="#fff0c4" opacity="0.31"/><circle cx="50.9" cy="30.3" r="1.3" fill="#fff0c4" opacity="0.36"/><circle cx="414.1" cy="160.1" r="1.5" fill="#fff0c4" opacity="0.27"/><circle cx="624.1" cy="103.9" r="0.9" fill="#fff0c4" opacity="0.21"/><circle cx="666.2" cy="260.3" r="1.4" fill="#fff0c4" opacity="0.56"/><circle cx="214.5" cy="222.2" r="1.6" fill="#fff0c4" opacity="0.57"/><circle cx="498.6" cy="212.1" r="1.1" fill="#fff0c4" opacity="0.33"/><circle cx="970.3" cy="24.3" r="0.6" fill="#fff0c4" opacity="0.50"/><circle cx="370.5" cy="233.8" r="1.7" fill="#fff0c4" opacity="0.39"/><circle cx="995.3" cy="232.1" r="0.8" fill="#fff0c4" opacity="0.54"/><circle cx="563.4" cy="229.0" r="0.8" fill="#fff0c4" opacity="0.46"/><circle cx="482.0" cy="81.8" r="1.5" fill="#fff0c4" opacity="0.51"/><circle cx="514.3" cy="50.7" r="0.9" fill="#fff0c4" opacity="0.23"/><circle cx="245.3" cy="81.2" r="1.7" fill="#fff0c4" opacity="0.32"/><circle cx="149.1" cy="332.7" r="0.7" fill="#fff0c4" opacity="0.30"/><circle cx="1055.4" cy="234.5" r="1.0" fill="#fff0c4" opacity="0.15"/><circle cx="816.1" cy="147.4" r="1.5" fill="#fff0c4" opacity="0.35"/><circle cx="171.8" cy="193.3" r="1.1" fill="#fff0c4" opacity="0.53"/><circle cx="1018.8" cy="330.1" r="1.8" fill="#fff0c4" opacity="0.16"/><circle cx="675.8" cy="314.4" r="1.2" fill="#fff0c4" opacity="0.42"/><circle cx="150.0" cy="230.1" r="1.2" fill="#fff0c4" opacity="0.60"/><circle cx="4.4" cy="224.2" r="1.7" fill="#fff0c4" opacity="0.55"/><circle cx="624.3" cy="128.8" r="1.5" fill="#fff0c4" opacity="0.37"/><circle cx="883.7" cy="329.9" r="1.8" fill="#fff0c4" opacity="0.34"/><circle cx="12.3" cy="143.5" r="1.6" fill="#fff0c4" opacity="0.27"/><circle cx="261.8" cy="157.2" r="0.8" fill="#fff0c4" opacity="0.51"/><circle cx="773.1" cy="39.4" r="1.3" fill="#fff0c4" opacity="0.52"/><circle cx="642.3" cy="314.7" r="1.1" fill="#fff0c4" opacity="0.53"/><circle cx="388.2" cy="286.4" r="1.1" fill="#fff0c4" opacity="0.22"/><circle cx="617.9" cy="265.1" r="1.6" fill="#fff0c4" opacity="0.53"/><circle cx="294.6" cy="284.4" r="0.9" fill="#fff0c4" opacity="0.27"/><circle cx="603.4" cy="63.0" r="0.9" fill="#fff0c4" opacity="0.28"/><circle cx="18.4" cy="213.8" r="1.3" fill="#fff0c4" opacity="0.23"/><circle cx="969.1" cy="279.3" r="0.7" fill="#fff0c4" opacity="0.24"/><circle cx="507.6" cy="53.7" r="0.9" fill="#fff0c4" opacity="0.51"/><circle cx="974.4" cy="112.2" r="1.0" fill="#fff0c4" opacity="0.36"/><circle cx="1065.9" cy="186.0" r="1.2" fill="#fff0c4" opacity="0.30"/><circle cx="900.6" cy="145.1" r="0.7" fill="#fff0c4" opacity="0.33"/><circle cx="685.9" cy="186.8" r="1.7" fill="#fff0c4" opacity="0.32"/><circle cx="184.8" cy="231.3" r="0.9" fill="#fff0c4" opacity="0.29"/><circle cx="182.5" cy="223.9" r="1.1" fill="#fff0c4" opacity="0.48"/><circle cx="1153.0" cy="324.4" r="1.6" fill="#fff0c4" opacity="0.42"/><circle cx="326.0" cy="301.7" r="1.8" fill="#fff0c4" opacity="0.51"/><circle cx="353.3" cy="176.8" r="1.8" fill="#fff0c4" opacity="0.36"/><circle cx="775.7" cy="71.6" r="1.6" fill="#fff0c4" opacity="0.50"/><circle cx="1089.4" cy="284.0" r="1.0" fill="#fff0c4" opacity="0.37"/><circle cx="1013.0" cy="230.5" r="1.1" fill="#fff0c4" opacity="0.28"/><circle cx="353.9" cy="335.1" r="1.3" fill="#fff0c4" opacity="0.41"/><circle cx="875.0" cy="64.8" r="1.7" fill="#fff0c4" opacity="0.16"/><circle cx="561.6" cy="271.5" r="1.0" fill="#fff0c4" opacity="0.53"/><circle cx="687.6" cy="321.6" r="1.5" fill="#fff0c4" opacity="0.46"/><circle cx="482.8" cy="210.8" r="1.2" fill="#fff0c4" opacity="0.19"/><circle cx="999.0" cy="186.7" r="1.1" fill="#fff0c4" opacity="0.52"/><circle cx="177.0" cy="257.7" r="0.6" fill="#fff0c4" opacity="0.48"/><circle cx="712.9" cy="268.6" r="1.5" fill="#fff0c4" opacity="0.29"/><circle cx="725.4" cy="202.5" r="1.0" fill="#fff0c4" opacity="0.54"/><circle cx="821.8" cy="30.1" r="1.8" fill="#fff0c4" opacity="0.35"/><circle cx="1165.2" cy="124.9" r="0.9" fill="#fff0c4" opacity="0.33"/><circle cx="540.6" cy="205.8" r="1.6" fill="#fff0c4" opacity="0.44"/><circle cx="1022.3" cy="205.5" r="1.0" fill="#fff0c4" opacity="0.34"/><circle cx="239.7" cy="6.5" r="1.5" fill="#fff0c4" opacity="0.16"/><circle cx="44.8" cy="83.1" r="1.2" fill="#fff0c4" opacity="0.52"/><circle cx="378.3" cy="330.5" r="1.6" fill="#fff0c4" opacity="0.32"/><circle cx="1136.4" cy="139.9" r="1.6" fill="#fff0c4" opacity="0.51"/>
  <!-- giant lightbulb -->
  <g transform="translate(280,170)" stroke="#fff0c4" fill="none" opacity="0.6" stroke-width="1.2">
    <path d="M 0 -70 a 50 50 0 0 1 30 90 q -10 10 -10 20 l -40 0 q 0 -10 -10 -20 a 50 50 0 0 1 30 -90 z"/>
    <line x1="-20" y1="50" x2="20" y2="50"/>
    <line x1="-15" y1="60" x2="15" y2="60"/>
    <path d="M -8 0 q 8 -10 16 0 m -16 -15 q 8 -10 16 0" opacity="0.5"/>
    <!-- rays -->
    <line x1="70.0" y1="0.0" x2="90.0" y2="0.0" opacity="0.5"/><line x1="49.5" y1="49.5" x2="63.6" y2="63.6" opacity="0.5"/><line x1="0.0" y1="70.0" x2="0.0" y2="90.0" opacity="0.5"/><line x1="-49.5" y1="49.5" x2="-63.6" y2="63.6" opacity="0.5"/><line x1="-70.0" y1="0.0" x2="-90.0" y2="0.0" opacity="0.5"/><line x1="-49.5" y1="-49.5" x2="-63.6" y2="-63.6" opacity="0.5"/><line x1="-0.0" y1="-70.0" x2="-0.0" y2="-90.0" opacity="0.5"/><line x1="49.5" y1="-49.5" x2="63.6" y2="-63.6" opacity="0.5"/>
  </g>
  <!-- inventor sketches: gears, wing, propeller -->
  <g stroke="#fff0c4" fill="none" opacity="0.5" stroke-width="1.1">
    <g transform="translate(700,120)">
      <ellipse rx="60" ry="20"/>
      <path d="M -60 0 q 30 -25 60 0" />
      <line x1="-50" y1="-15" x2="-50" y2="0" opacity="0.5"/><line x1="-30" y1="-15" x2="-30" y2="0" opacity="0.5"/><line x1="-10" y1="-15" x2="-10" y2="0" opacity="0.5"/><line x1="10" y1="-15" x2="10" y2="0" opacity="0.5"/><line x1="30" y1="-15" x2="30" y2="0" opacity="0.5"/><line x1="50" y1="-15" x2="50" y2="0" opacity="0.5"/>
    </g>
    <g transform="translate(960,230)">
      <line x1="-40" y1="0" x2="40" y2="0"/>
      <line x1="0" y1="-40" x2="0" y2="40"/>
      <circle r="8"/>
    </g>
  </g>
  <g font-family="ui-serif, Georgia, serif" fill="#fff0c4" opacity="0.45" font-style="italic" font-size="14">
    <text x="500" y="280">— Codex Atlanticus, fol. 1058</text>
  </g>

        <rect width="1200" height="340" fill="url(#fade-r)"/>
      </svg>