<svg  viewBox="0 0 1200 340" preserveAspectRatio="xMidYMid slice"  xmlns="http://www.w3.org/2000/svg" >
        <defs><radialGradient id="glow-blue"><stop offset="0%" stop-color="#5b8def" stop-opacity="0.55"/><stop offset="60%" stop-color="#5b8def" stop-opacity="0.1"/><stop offset="100%" stop-color="#5b8def" stop-opacity="0"/></radialGradient><radialGradient id="glow-purple"><stop offset="0%" stop-color="#a06bff" stop-opacity="0.55"/><stop offset="60%" stop-color="#a06bff" stop-opacity="0.1"/><stop offset="100%" stop-color="#a06bff" stop-opacity="0"/></radialGradient><radialGradient id="glow-orange"><stop offset="0%" stop-color="#ff9b54" stop-opacity="0.55"/><stop offset="60%" stop-color="#ff9b54" stop-opacity="0.1"/><stop offset="100%" stop-color="#ff9b54" stop-opacity="0"/></radialGradient><radialGradient id="glow-teal"><stop offset="0%" stop-color="#3ecbb5" stop-opacity="0.55"/><stop offset="60%" stop-color="#3ecbb5" stop-opacity="0.1"/><stop offset="100%" stop-color="#3ecbb5" stop-opacity="0"/></radialGradient><radialGradient id="glow-pink"><stop offset="0%" stop-color="#ff7ab8" stop-opacity="0.55"/><stop offset="60%" stop-color="#ff7ab8" stop-opacity="0.1"/><stop offset="100%" stop-color="#ff7ab8" stop-opacity="0"/></radialGradient><radialGradient id="glow-green"><stop offset="0%" stop-color="#7bd389" stop-opacity="0.55"/><stop offset="60%" stop-color="#7bd389" stop-opacity="0.1"/><stop offset="100%" stop-color="#7bd389" stop-opacity="0"/></radialGradient><radialGradient id="glow-yellow"><stop offset="0%" stop-color="#ffd166" stop-opacity="0.55"/><stop offset="60%" stop-color="#ffd166" stop-opacity="0.1"/><stop offset="100%" stop-color="#ffd166" stop-opacity="0"/></radialGradient><radialGradient id="glow-red"><stop offset="0%" stop-color="#ff6b6b" stop-opacity="0.55"/><stop offset="60%" stop-color="#ff6b6b" stop-opacity="0.1"/><stop offset="100%" stop-color="#ff6b6b" stop-opacity="0"/></radialGradient><radialGradient id="glow-cyan"><stop offset="0%" stop-color="#5ad8ff" stop-opacity="0.55"/><stop offset="60%" stop-color="#5ad8ff" stop-opacity="0.1"/><stop offset="100%" stop-color="#5ad8ff" stop-opacity="0"/></radialGradient><radialGradient id="glow-sand"><stop offset="0%" stop-color="#d6b56a" stop-opacity="0.55"/><stop offset="60%" stop-color="#d6b56a" stop-opacity="0.1"/><stop offset="100%" stop-color="#d6b56a" stop-opacity="0"/></radialGradient><radialGradient id="glow-white"><stop offset="0%" stop-color="#e6eeff" stop-opacity="0.55"/><stop offset="60%" stop-color="#e6eeff" stop-opacity="0.1"/><stop offset="100%" stop-color="#e6eeff" stop-opacity="0"/></radialGradient><radialGradient id="glow-slate"><stop offset="0%" stop-color="#7c8db5" stop-opacity="0.55"/><stop offset="60%" stop-color="#7c8db5" stop-opacity="0.1"/><stop offset="100%" stop-color="#7c8db5" stop-opacity="0"/></radialGradient><linearGradient id="fade-r" x1="0" x2="1"><stop offset="0%" stop-color="#0b1020" stop-opacity="0.85"/><stop offset="55%" stop-color="#0b1020" stop-opacity="0"/></linearGradient><filter id="soft" x="-20%" y="-20%" width="140%" height="140%"><feGaussianBlur stdDeviation="0.4"/></filter></defs>
        <rect width="1200" height="340" fill="#0b1020"/>
        
  <circle cx="880" cy="100" r="240" fill="url(#glow-green)" opacity="0.35"/>
  <circle cx="240" cy="260" r="220" fill="url(#glow-pink)" opacity="0.3"/>
  <circle cx="433.3" cy="253.7" r="1.1" fill="#cff5d8" opacity="0.48"/><circle cx="687.8" cy="21.2" r="0.8" fill="#cff5d8" opacity="0.58"/><circle cx="507.7" cy="39.0" r="1.0" fill="#cff5d8" opacity="0.55"/><circle cx="1167.1" cy="13.6" r="1.7" fill="#cff5d8" opacity="0.22"/><circle cx="695.6" cy="280.5" r="0.7" fill="#cff5d8" opacity="0.30"/><circle cx="145.1" cy="67.5" r="1.5" fill="#cff5d8" opacity="0.24"/><circle cx="1056.4" cy="63.0" r="1.1" fill="#cff5d8" opacity="0.40"/><circle cx="125.7" cy="111.7" r="1.4" fill="#cff5d8" opacity="0.56"/><circle cx="271.5" cy="196.7" r="0.6" fill="#cff5d8" opacity="0.40"/><circle cx="901.3" cy="288.7" r="1.5" fill="#cff5d8" opacity="0.41"/><circle cx="978.0" cy="81.3" r="1.2" fill="#cff5d8" opacity="0.30"/><circle cx="486.7" cy="313.3" r="1.6" fill="#cff5d8" opacity="0.46"/><circle cx="301.7" cy="237.4" r="1.2" fill="#cff5d8" opacity="0.56"/><circle cx="452.5" cy="76.2" r="1.0" fill="#cff5d8" opacity="0.27"/><circle cx="390.9" cy="304.0" r="1.6" fill="#cff5d8" opacity="0.24"/><circle cx="57.7" cy="135.8" r="0.9" fill="#cff5d8" opacity="0.24"/><circle cx="549.2" cy="322.9" r="1.5" fill="#cff5d8" opacity="0.33"/><circle cx="783.9" cy="55.4" r="1.4" fill="#cff5d8" opacity="0.51"/><circle cx="969.2" cy="210.4" r="1.6" fill="#cff5d8" opacity="0.20"/><circle cx="868.1" cy="28.2" r="1.2" fill="#cff5d8" opacity="0.32"/><circle cx="65.8" cy="134.2" r="0.6" fill="#cff5d8" opacity="0.21"/><circle cx="236.3" cy="8.0" r="1.5" fill="#cff5d8" opacity="0.30"/><circle cx="1009.3" cy="98.6" r="0.9" fill="#cff5d8" opacity="0.55"/><circle cx="236.6" cy="87.1" r="1.3" fill="#cff5d8" opacity="0.55"/><circle cx="1059.0" cy="95.2" r="1.5" fill="#cff5d8" opacity="0.38"/><circle cx="572.7" cy="80.9" r="1.3" fill="#cff5d8" opacity="0.40"/><circle cx="896.3" cy="140.8" r="1.7" fill="#cff5d8" opacity="0.46"/><circle cx="637.2" cy="18.7" r="1.2" fill="#cff5d8" opacity="0.29"/><circle cx="358.3" cy="201.7" r="0.8" fill="#cff5d8" opacity="0.19"/><circle cx="444.9" cy="181.8" r="1.6" fill="#cff5d8" opacity="0.27"/><circle cx="971.0" cy="5.2" r="1.4" fill="#cff5d8" opacity="0.34"/><circle cx="1166.2" cy="7.7" r="1.5" fill="#cff5d8" opacity="0.22"/><circle cx="882.4" cy="96.9" r="1.8" fill="#cff5d8" opacity="0.25"/><circle cx="460.3" cy="281.3" r="1.7" fill="#cff5d8" opacity="0.37"/><circle cx="196.2" cy="65.5" r="1.8" fill="#cff5d8" opacity="0.32"/><circle cx="608.7" cy="112.8" r="1.7" fill="#cff5d8" opacity="0.27"/><circle cx="1105.2" cy="53.7" r="1.7" fill="#cff5d8" opacity="0.23"/><circle cx="648.5" cy="261.9" r="1.2" fill="#cff5d8" opacity="0.36"/><circle cx="424.0" cy="116.1" r="1.1" fill="#cff5d8" opacity="0.17"/><circle cx="105.6" cy="229.1" r="0.9" fill="#cff5d8" opacity="0.22"/><circle cx="923.0" cy="143.4" r="1.8" fill="#cff5d8" opacity="0.19"/><circle cx="1128.1" cy="333.4" r="0.6" fill="#cff5d8" opacity="0.26"/><circle cx="661.6" cy="14.1" r="1.5" fill="#cff5d8" opacity="0.20"/><circle cx="619.8" cy="276.8" r="0.7" fill="#cff5d8" opacity="0.55"/><circle cx="1121.1" cy="311.5" r="1.3" fill="#cff5d8" opacity="0.37"/><circle cx="1173.1" cy="315.4" r="1.7" fill="#cff5d8" opacity="0.47"/><circle cx="538.7" cy="208.7" r="1.2" fill="#cff5d8" opacity="0.39"/><circle cx="3.0" cy="277.0" r="1.3" fill="#cff5d8" opacity="0.37"/><circle cx="40.2" cy="339.6" r="1.2" fill="#cff5d8" opacity="0.41"/><circle cx="279.9" cy="165.8" r="1.7" fill="#cff5d8" opacity="0.46"/><circle cx="973.8" cy="116.6" r="1.5" fill="#cff5d8" opacity="0.56"/><circle cx="462.9" cy="313.5" r="0.8" fill="#cff5d8" opacity="0.34"/><circle cx="643.3" cy="34.8" r="1.7" fill="#cff5d8" opacity="0.17"/><circle cx="33.5" cy="56.9" r="1.6" fill="#cff5d8" opacity="0.33"/><circle cx="841.1" cy="123.7" r="1.3" fill="#cff5d8" opacity="0.55"/><circle cx="28.9" cy="42.3" r="0.8" fill="#cff5d8" opacity="0.26"/><circle cx="382.1" cy="324.6" r="1.1" fill="#cff5d8" opacity="0.43"/><circle cx="774.9" cy="336.9" r="1.1" fill="#cff5d8" opacity="0.45"/><circle cx="436.7" cy="74.9" r="1.1" fill="#cff5d8" opacity="0.58"/><circle cx="419.6" cy="126.4" r="0.8" fill="#cff5d8" opacity="0.26"/>
  <!-- mortar & pestle -->
  <g transform="translate(280,200)" stroke="#cff5d8" fill="none" opacity="0.6" stroke-width="1.1">
    <path d="M -50 0 q 0 60 50 60 q 50 0 50 -60 z"/>
    <line x1="-55" y1="0" x2="55" y2="0"/>
    <line x1="20" y1="-10" x2="60" y2="-70"/>
    <circle cx="60" cy="-70" r="6"/>
  </g>
  <!-- pills -->
  <g opacity="0.55" stroke="#cff5d8" fill="none" stroke-width="1.1">
    <g transform="translate(700,120) rotate(20)"><rect x="-25" y="-12" width="50" height="24" rx="12"/><line x1="0" y1="-12" x2="0" y2="12"/></g>
    <g transform="translate(820,180) rotate(-15)"><rect x="-25" y="-12" width="50" height="24" rx="12"/><line x1="0" y1="-12" x2="0" y2="12"/></g>
    <circle cx="940" cy="240" r="14"/><line x1="926" y1="240" x2="954" y2="240"/>
    <circle cx="600" cy="260" r="12"/><line x1="588" y1="260" x2="612" y2="260"/>
  </g>
  <!-- Rx symbol -->
  <g font-family="ui-serif, Georgia, serif" fill="#cff5d8" opacity="0.5" font-size="80" font-style="italic">
    <text x="100" y="120">℞</text>
  </g>

        <rect width="1200" height="340" fill="url(#fade-r)"/>
      </svg>