<svg  viewBox="0 0 1200 340" preserveAspectRatio="xMidYMid slice"  xmlns="http://www.w3.org/2000/svg" >
        <defs><radialGradient id="glow-blue"><stop offset="0%" stop-color="#5b8def" stop-opacity="0.55"/><stop offset="60%" stop-color="#5b8def" stop-opacity="0.1"/><stop offset="100%" stop-color="#5b8def" stop-opacity="0"/></radialGradient><radialGradient id="glow-purple"><stop offset="0%" stop-color="#a06bff" stop-opacity="0.55"/><stop offset="60%" stop-color="#a06bff" stop-opacity="0.1"/><stop offset="100%" stop-color="#a06bff" stop-opacity="0"/></radialGradient><radialGradient id="glow-orange"><stop offset="0%" stop-color="#ff9b54" stop-opacity="0.55"/><stop offset="60%" stop-color="#ff9b54" stop-opacity="0.1"/><stop offset="100%" stop-color="#ff9b54" stop-opacity="0"/></radialGradient><radialGradient id="glow-teal"><stop offset="0%" stop-color="#3ecbb5" stop-opacity="0.55"/><stop offset="60%" stop-color="#3ecbb5" stop-opacity="0.1"/><stop offset="100%" stop-color="#3ecbb5" stop-opacity="0"/></radialGradient><radialGradient id="glow-pink"><stop offset="0%" stop-color="#ff7ab8" stop-opacity="0.55"/><stop offset="60%" stop-color="#ff7ab8" stop-opacity="0.1"/><stop offset="100%" stop-color="#ff7ab8" stop-opacity="0"/></radialGradient><radialGradient id="glow-green"><stop offset="0%" stop-color="#7bd389" stop-opacity="0.55"/><stop offset="60%" stop-color="#7bd389" stop-opacity="0.1"/><stop offset="100%" stop-color="#7bd389" stop-opacity="0"/></radialGradient><radialGradient id="glow-yellow"><stop offset="0%" stop-color="#ffd166" stop-opacity="0.55"/><stop offset="60%" stop-color="#ffd166" stop-opacity="0.1"/><stop offset="100%" stop-color="#ffd166" stop-opacity="0"/></radialGradient><radialGradient id="glow-red"><stop offset="0%" stop-color="#ff6b6b" stop-opacity="0.55"/><stop offset="60%" stop-color="#ff6b6b" stop-opacity="0.1"/><stop offset="100%" stop-color="#ff6b6b" stop-opacity="0"/></radialGradient><radialGradient id="glow-cyan"><stop offset="0%" stop-color="#5ad8ff" stop-opacity="0.55"/><stop offset="60%" stop-color="#5ad8ff" stop-opacity="0.1"/><stop offset="100%" stop-color="#5ad8ff" stop-opacity="0"/></radialGradient><radialGradient id="glow-sand"><stop offset="0%" stop-color="#d6b56a" stop-opacity="0.55"/><stop offset="60%" stop-color="#d6b56a" stop-opacity="0.1"/><stop offset="100%" stop-color="#d6b56a" stop-opacity="0"/></radialGradient><radialGradient id="glow-white"><stop offset="0%" stop-color="#e6eeff" stop-opacity="0.55"/><stop offset="60%" stop-color="#e6eeff" stop-opacity="0.1"/><stop offset="100%" stop-color="#e6eeff" stop-opacity="0"/></radialGradient><radialGradient id="glow-slate"><stop offset="0%" stop-color="#7c8db5" stop-opacity="0.55"/><stop offset="60%" stop-color="#7c8db5" stop-opacity="0.1"/><stop offset="100%" stop-color="#7c8db5" stop-opacity="0"/></radialGradient><linearGradient id="fade-r" x1="0" x2="1"><stop offset="0%" stop-color="#0b1020" stop-opacity="0.85"/><stop offset="55%" stop-color="#0b1020" stop-opacity="0"/></linearGradient><filter id="soft" x="-20%" y="-20%" width="140%" height="140%"><feGaussianBlur stdDeviation="0.4"/></filter></defs>
        <rect width="1200" height="340" fill="#0b1020"/>
        
  <circle cx="880" cy="100" r="260" fill="url(#glow-purple)" opacity="0.35"/>
  <circle cx="220" cy="260" r="200" fill="url(#glow-sand)" opacity="0.3"/>
  <circle cx="624.7" cy="30.6" r="1.3" fill="#dbd2ff" opacity="0.41"/><circle cx="429.8" cy="107.2" r="0.9" fill="#dbd2ff" opacity="0.33"/><circle cx="763.3" cy="14.6" r="1.4" fill="#dbd2ff" opacity="0.58"/><circle cx="321.4" cy="164.0" r="1.4" fill="#dbd2ff" opacity="0.32"/><circle cx="422.8" cy="85.3" r="1.6" fill="#dbd2ff" opacity="0.45"/><circle cx="74.8" cy="315.9" r="1.6" fill="#dbd2ff" opacity="0.39"/><circle cx="240.4" cy="95.9" r="0.7" fill="#dbd2ff" opacity="0.16"/><circle cx="504.7" cy="50.8" r="1.6" fill="#dbd2ff" opacity="0.45"/><circle cx="141.9" cy="0.1" r="1.1" fill="#dbd2ff" opacity="0.34"/><circle cx="1181.5" cy="53.0" r="1.2" fill="#dbd2ff" opacity="0.23"/><circle cx="275.5" cy="230.4" r="0.6" fill="#dbd2ff" opacity="0.19"/><circle cx="564.5" cy="314.0" r="0.7" fill="#dbd2ff" opacity="0.27"/><circle cx="344.9" cy="261.9" r="1.2" fill="#dbd2ff" opacity="0.39"/><circle cx="535.2" cy="170.7" r="0.7" fill="#dbd2ff" opacity="0.40"/><circle cx="942.8" cy="124.2" r="1.2" fill="#dbd2ff" opacity="0.48"/><circle cx="930.6" cy="269.4" r="1.5" fill="#dbd2ff" opacity="0.48"/><circle cx="883.8" cy="98.4" r="1.4" fill="#dbd2ff" opacity="0.51"/><circle cx="876.5" cy="337.3" r="1.0" fill="#dbd2ff" opacity="0.38"/><circle cx="138.4" cy="302.0" r="0.6" fill="#dbd2ff" opacity="0.36"/><circle cx="921.3" cy="240.2" r="1.1" fill="#dbd2ff" opacity="0.34"/><circle cx="1165.8" cy="160.1" r="0.9" fill="#dbd2ff" opacity="0.26"/><circle cx="1168.5" cy="246.6" r="1.7" fill="#dbd2ff" opacity="0.31"/><circle cx="247.6" cy="142.7" r="0.7" fill="#dbd2ff" opacity="0.21"/><circle cx="210.7" cy="159.2" r="1.7" fill="#dbd2ff" opacity="0.42"/><circle cx="20.7" cy="329.6" r="0.7" fill="#dbd2ff" opacity="0.20"/><circle cx="862.9" cy="32.6" r="0.8" fill="#dbd2ff" opacity="0.41"/><circle cx="11.2" cy="221.2" r="1.8" fill="#dbd2ff" opacity="0.26"/><circle cx="1095.2" cy="97.8" r="0.9" fill="#dbd2ff" opacity="0.33"/><circle cx="1167.0" cy="136.7" r="1.2" fill="#dbd2ff" opacity="0.34"/><circle cx="167.1" cy="232.9" r="0.7" fill="#dbd2ff" opacity="0.54"/><circle cx="392.0" cy="117.8" r="0.6" fill="#dbd2ff" opacity="0.53"/><circle cx="760.0" cy="1.4" r="1.4" fill="#dbd2ff" opacity="0.31"/><circle cx="278.7" cy="80.9" r="1.7" fill="#dbd2ff" opacity="0.21"/><circle cx="1110.9" cy="276.4" r="0.7" fill="#dbd2ff" opacity="0.23"/><circle cx="441.9" cy="193.6" r="1.1" fill="#dbd2ff" opacity="0.16"/><circle cx="1145.8" cy="331.8" r="0.9" fill="#dbd2ff" opacity="0.45"/><circle cx="452.1" cy="120.2" r="0.8" fill="#dbd2ff" opacity="0.60"/><circle cx="1012.7" cy="259.8" r="0.9" fill="#dbd2ff" opacity="0.20"/><circle cx="1168.4" cy="192.3" r="1.3" fill="#dbd2ff" opacity="0.23"/><circle cx="415.5" cy="215.8" r="1.6" fill="#dbd2ff" opacity="0.16"/><circle cx="872.4" cy="86.8" r="1.8" fill="#dbd2ff" opacity="0.27"/><circle cx="1146.6" cy="229.2" r="1.4" fill="#dbd2ff" opacity="0.29"/><circle cx="601.1" cy="109.9" r="1.5" fill="#dbd2ff" opacity="0.55"/><circle cx="821.0" cy="241.2" r="0.9" fill="#dbd2ff" opacity="0.22"/><circle cx="680.4" cy="329.0" r="0.8" fill="#dbd2ff" opacity="0.49"/><circle cx="609.0" cy="29.3" r="1.4" fill="#dbd2ff" opacity="0.27"/><circle cx="458.5" cy="269.6" r="1.4" fill="#dbd2ff" opacity="0.35"/><circle cx="569.7" cy="38.4" r="1.5" fill="#dbd2ff" opacity="0.22"/><circle cx="39.0" cy="200.4" r="0.9" fill="#dbd2ff" opacity="0.53"/><circle cx="584.8" cy="58.8" r="1.7" fill="#dbd2ff" opacity="0.52"/><circle cx="414.6" cy="264.2" r="0.6" fill="#dbd2ff" opacity="0.23"/><circle cx="891.3" cy="170.1" r="0.7" fill="#dbd2ff" opacity="0.27"/><circle cx="800.1" cy="175.4" r="1.5" fill="#dbd2ff" opacity="0.57"/><circle cx="1015.0" cy="212.9" r="1.5" fill="#dbd2ff" opacity="0.38"/><circle cx="365.8" cy="165.0" r="1.7" fill="#dbd2ff" opacity="0.24"/><circle cx="704.2" cy="166.1" r="1.5" fill="#dbd2ff" opacity="0.36"/><circle cx="771.0" cy="111.2" r="1.2" fill="#dbd2ff" opacity="0.51"/><circle cx="462.5" cy="71.7" r="1.0" fill="#dbd2ff" opacity="0.30"/><circle cx="1097.2" cy="257.5" r="1.3" fill="#dbd2ff" opacity="0.18"/><circle cx="482.6" cy="185.8" r="0.7" fill="#dbd2ff" opacity="0.47"/><circle cx="781.5" cy="117.0" r="0.7" fill="#dbd2ff" opacity="0.29"/><circle cx="379.2" cy="336.3" r="1.7" fill="#dbd2ff" opacity="0.33"/><circle cx="949.7" cy="323.4" r="0.6" fill="#dbd2ff" opacity="0.57"/><circle cx="922.7" cy="187.4" r="1.6" fill="#dbd2ff" opacity="0.51"/><circle cx="550.0" cy="289.2" r="1.2" fill="#dbd2ff" opacity="0.21"/><circle cx="572.3" cy="70.7" r="0.6" fill="#dbd2ff" opacity="0.20"/><circle cx="486.0" cy="169.7" r="0.8" fill="#dbd2ff" opacity="0.37"/><circle cx="9.7" cy="2.9" r="1.7" fill="#dbd2ff" opacity="0.58"/><circle cx="150.5" cy="334.2" r="1.5" fill="#dbd2ff" opacity="0.56"/><circle cx="271.7" cy="290.5" r="1.5" fill="#dbd2ff" opacity="0.16"/>
  <!-- thinker silhouette (line) -->
  <g transform="translate(280,260)" stroke="#dbd2ff" fill="none" opacity="0.55" stroke-width="1.2">
    <circle cx="0" cy="-130" r="22"/>
    <path d="M 0 -108 q -10 30 -20 50 q -10 20 -10 40 q 0 20 30 30"/>
    <path d="M -20 -10 q 20 -10 40 0 q 20 10 30 0"/>
    <path d="M 30 -50 q 30 -10 40 30"/>
  </g>
  <!-- Greek column -->
  <g transform="translate(900,270)" stroke="#dbd2ff" fill="none" opacity="0.5" stroke-width="1">
    <line x1="-25" y1="0" x2="25" y2="0"/><rect x="-30" y="-10" width="60" height="10"/>
    <line x1="-20" y1="-10" x2="-20" y2="-160"/><line x1="-12" y1="-10" x2="-12" y2="-160"/><line x1="-4" y1="-10" x2="-4" y2="-160"/><line x1="4" y1="-10" x2="4" y2="-160"/><line x1="12" y1="-10" x2="12" y2="-160"/><line x1="20" y1="-10" x2="20" y2="-160"/>
    <rect x="-30" y="-170" width="60" height="10"/>
  </g>
  <g font-family="ui-serif, Georgia, serif" fill="#dbd2ff" opacity="0.5" font-style="italic">
    <text x="500" y="110" font-size="22">"Cogito, ergo sum."</text>
    <text x="540" y="270" font-size="18">— γνῶθι σεαυτόν</text>
  </g>

        <rect width="1200" height="340" fill="url(#fade-r)"/>
      </svg>