<svg xmlns="http://www.w3.org/2000/svg" viewBox="0 0 480 320"><rect x="20" y="18" width="440" height="284" rx="100" fill="#e7ede2"/><g stroke="#563b2a" stroke-width="5"><rect x="78" y="55" width="180" height="224" rx="24" fill="#fffaf2" transform="rotate(-9 168 167)"/><rect x="224" y="73" width="173" height="220" rx="24" fill="#f1d8af" transform="rotate(9 310 183)"/></g><g fill="none" stroke="#93481f" stroke-width="10" stroke-linecap="round"><path d="M142 111c0-36 59-36 59 0 0 20-27 24-27 41"/><path d="M174 174v1"/></g><g fill="#e9c89a"><rect x="107" y="202" width="116" height="16" rx="8"/><rect x="107" y="231" width="83" height="16" rx="8"/></g><g fill="none" stroke="#467373" stroke-width="8" stroke-linecap="round" stroke-linejoin="round"><path d="m258 132 13 14 23-27"/><path d="m258 180 13 14 23-27"/><path d="m258 228 13 14 23-27"/></g><g fill="#9e703e"><rect x="307" y="128" width="58" height="12" rx="6"/><rect x="307" y="176" width="50" height="12" rx="6"/><rect x="307" y="224" width="61" height="12" rx="6"/></g><path d="M363 34c-18-24-47 4-18 26l18 14 18-14c29-22 0-50-18-26z" fill="#914426"/></svg>
